<svg width="85" height="24" viewBox="0 0 85 24" fill="none" xmlns="http://www.w3.org/2000/svg">
<path d="M33.4335 17.4132C32.8655 17.4132 32.324 17.3244 31.8091 17.1469C31.2943 16.9694 30.846 16.7208 30.4644 16.4013C30.0827 16.0817 29.8031 15.7133 29.6255 15.2961C29.5368 15.1097 29.5368 14.9366 29.6255 14.7768C29.7232 14.6171 29.8829 14.515 30.1049 14.4706C30.2646 14.4351 30.42 14.4617 30.5709 14.5505C30.7306 14.6304 30.8505 14.7547 30.9304 14.9233C31.0369 15.1452 31.21 15.3494 31.4496 15.5358C31.6982 15.7222 31.9956 15.8731 32.3417 15.9885C32.6879 16.1039 33.0519 16.1616 33.4335 16.1616C33.8596 16.1616 34.2502 16.095 34.6052 15.9619C34.9692 15.8287 35.2621 15.6379 35.484 15.3893C35.7059 15.1319 35.8169 14.8168 35.8169 14.444C35.8169 13.9735 35.6305 13.5519 35.2577 13.1791C34.8937 12.8063 34.2901 12.5755 33.4469 12.4867C32.3462 12.3802 31.4807 12.0562 30.8505 11.5147C30.2202 10.9733 29.9051 10.3031 29.9051 9.5042C29.9051 8.91834 30.0693 8.42126 30.3978 8.01294C30.7262 7.60462 31.17 7.29394 31.7293 7.08091C32.2974 6.86787 32.9276 6.76135 33.62 6.76135C34.1614 6.76135 34.6319 6.8368 35.0313 6.9877C35.4396 7.1386 35.7947 7.3472 36.0965 7.6135C36.3983 7.87979 36.6602 8.19491 36.8821 8.55885C37.0063 8.75413 37.0552 8.94054 37.0285 9.11807C37.0108 9.28672 36.9265 9.41987 36.7756 9.51751C36.6069 9.62403 36.4249 9.64622 36.2297 9.58408C36.0344 9.52195 35.8879 9.40655 35.7903 9.2379C35.6482 8.98048 35.4751 8.76301 35.271 8.58548C35.0668 8.40794 34.8272 8.27036 34.552 8.17272C34.2768 8.0662 33.9528 8.01294 33.58 8.01294C32.9231 8.00406 32.3728 8.12833 31.929 8.38575C31.4852 8.6343 31.2632 9.02042 31.2632 9.54414C31.2632 9.81044 31.3298 10.0679 31.463 10.3164C31.605 10.5561 31.858 10.7647 32.2219 10.9422C32.5947 11.1197 33.1273 11.244 33.8197 11.315C34.876 11.4215 35.6971 11.7455 36.2829 12.287C36.8776 12.8196 37.175 13.5253 37.175 14.404C37.175 14.91 37.0685 15.3494 36.8554 15.7222C36.6513 16.095 36.3717 16.4101 36.0166 16.6675C35.6704 16.9161 35.271 17.1025 34.8183 17.2268C34.3745 17.351 33.9129 17.4132 33.4335 17.4132ZM42.4673 17.3333C41.7483 17.3333 41.1136 17.1779 40.5633 16.8673C40.013 16.5477 39.578 16.1128 39.2585 15.5624C38.9478 15.0032 38.7924 14.3641 38.7924 13.6451C38.7924 12.9172 38.9478 12.2781 39.2585 11.7278C39.578 11.1685 40.013 10.7336 40.5633 10.4229C41.1136 10.1034 41.7483 9.94358 42.4673 9.94358C43.1774 9.94358 43.8077 10.1034 44.358 10.4229C44.9084 10.7336 45.3389 11.1685 45.6495 11.7278C45.9691 12.2781 46.1289 12.9172 46.1289 13.6451C46.1289 14.3641 45.9735 15.0032 45.6629 15.5624C45.3522 16.1128 44.9217 16.5477 44.3713 16.8673C43.821 17.1779 43.1863 17.3333 42.4673 17.3333ZM42.4673 16.135C42.9289 16.135 43.3372 16.0284 43.6923 15.8154C44.0473 15.6024 44.3225 15.3094 44.5178 14.9366C44.722 14.5638 44.824 14.1333 44.824 13.6451C44.824 13.1569 44.722 12.7264 44.5178 12.3536C44.3225 11.9719 44.0473 11.6745 43.6923 11.4615C43.3372 11.2484 42.9289 11.1419 42.4673 11.1419C42.0057 11.1419 41.5974 11.2484 41.2424 11.4615C40.8873 11.6745 40.6077 11.9719 40.4035 12.3536C40.1994 12.7264 40.0973 13.1569 40.0973 13.6451C40.0973 14.1333 40.1994 14.5638 40.4035 14.9366C40.6077 15.3094 40.8873 15.6024 41.2424 15.8154C41.5974 16.0284 42.0057 16.135 42.4673 16.135ZM51.2125 17.3466C50.6 17.3466 50.0497 17.2179 49.5615 16.9605C49.0822 16.6942 48.7005 16.3081 48.4164 15.8021C48.1413 15.2961 48.0037 14.6748 48.0037 13.938V10.6626C48.0037 10.4673 48.0658 10.3075 48.1901 10.1832C48.3232 10.0501 48.4874 9.98353 48.6827 9.98353C48.878 9.98353 49.0378 10.0501 49.1621 10.1832C49.2952 10.3075 49.3618 10.4673 49.3618 10.6626V13.938C49.3618 14.4351 49.455 14.8479 49.6414 15.1763C49.8278 15.4958 50.0808 15.7355 50.4003 15.8953C50.7199 16.0462 51.0794 16.1216 51.4788 16.1216C51.8605 16.1216 52.1978 16.0462 52.4907 15.8953C52.7925 15.7444 53.0322 15.5402 53.2097 15.2828C53.3873 15.0254 53.476 14.7369 53.476 14.4174H54.3149C54.3149 14.9677 54.1773 15.4648 53.9021 15.9086C53.6358 16.3524 53.2674 16.7031 52.797 16.9605C52.3354 17.2179 51.8073 17.3466 51.2125 17.3466ZM54.1551 17.28C53.9598 17.28 53.7956 17.2179 53.6624 17.0936C53.5382 16.9605 53.476 16.7963 53.476 16.601V10.6626C53.476 10.4584 53.5382 10.2942 53.6624 10.1699C53.7956 10.0457 53.9598 9.98353 54.1551 9.98353C54.3593 9.98353 54.5235 10.0457 54.6477 10.1699C54.772 10.2942 54.8341 10.4584 54.8341 10.6626V16.601C54.8341 16.7963 54.772 16.9605 54.6477 17.0936C54.5235 17.2179 54.3593 17.28 54.1551 17.28ZM63.3775 17.2933C63.1822 17.2933 63.018 17.2312 62.8848 17.1069C62.7605 16.9738 62.6984 16.8096 62.6984 16.6143V13.3389C62.6984 12.8329 62.6052 12.4201 62.4188 12.1006C62.2324 11.781 61.9794 11.5458 61.6598 11.3949C61.3492 11.2351 60.9897 11.1552 60.5814 11.1552C60.2085 11.1552 59.8712 11.2307 59.5694 11.3816C59.2676 11.5325 59.028 11.7366 58.8504 11.9941C58.6729 12.2426 58.5841 12.5311 58.5841 12.8595H57.7453C57.7453 12.3003 57.8784 11.8032 58.1447 11.3683C58.4199 10.9244 58.7927 10.5738 59.2632 10.3164C59.7336 10.059 60.2618 9.93027 60.8476 9.93027C61.4601 9.93027 62.006 10.0634 62.4854 10.3297C62.9736 10.5871 63.3553 10.9688 63.6304 11.4748C63.9145 11.9807 64.0565 12.6021 64.0565 13.3389V16.6143C64.0565 16.8096 63.9899 16.9738 63.8568 17.1069C63.7325 17.2312 63.5727 17.2933 63.3775 17.2933ZM57.9051 17.2933C57.7098 17.2933 57.5456 17.2312 57.4124 17.1069C57.2882 16.9738 57.226 16.8096 57.226 16.6143V10.6759C57.226 10.4717 57.2882 10.3075 57.4124 10.1832C57.5456 10.059 57.7098 9.99684 57.9051 9.99684C58.1092 9.99684 58.2735 10.059 58.3977 10.1832C58.522 10.3075 58.5841 10.4717 58.5841 10.6759V16.6143C58.5841 16.8096 58.522 16.9738 58.3977 17.1069C58.2735 17.2312 58.1092 17.2933 57.9051 17.2933ZM69.604 17.3333C68.9116 17.3333 68.2858 17.1735 67.7266 16.854C67.1763 16.5255 66.7369 16.0817 66.4084 15.5225C66.0889 14.9633 65.9291 14.333 65.9291 13.6318C65.9291 12.9305 66.0756 12.3047 66.3685 11.7544C66.6703 11.1952 67.0786 10.7558 67.5935 10.4362C68.1083 10.1078 68.6897 9.94358 69.3377 9.94358C69.8614 9.94358 70.3452 10.0545 70.789 10.2765C71.2328 10.4895 71.6056 10.7824 71.9074 11.1552V7.56024C71.9074 7.35608 71.9696 7.19186 72.0939 7.06759C72.227 6.94332 72.3912 6.88118 72.5865 6.88118C72.7907 6.88118 72.9549 6.94332 73.0791 7.06759C73.2034 7.19186 73.2656 7.35608 73.2656 7.56024V13.6318C73.2656 14.333 73.1013 14.9633 72.7729 15.5225C72.4534 16.0817 72.0184 16.5255 71.4681 16.854C70.9177 17.1735 70.2964 17.3333 69.604 17.3333ZM69.604 16.135C70.0567 16.135 70.4606 16.0284 70.8156 15.8154C71.1707 15.5935 71.4503 15.2917 71.6545 14.91C71.8586 14.5283 71.9607 14.1022 71.9607 13.6318C71.9607 13.1524 71.8586 12.7264 71.6545 12.3536C71.4503 11.9807 71.1707 11.6878 70.8156 11.4748C70.4606 11.2529 70.0567 11.1419 69.604 11.1419C69.1602 11.1419 68.7563 11.2529 68.3923 11.4748C68.0373 11.6878 67.7532 11.9807 67.5402 12.3536C67.336 12.7264 67.234 13.1524 67.234 13.6318C67.234 14.1022 67.336 14.5283 67.5402 14.91C67.7532 15.2917 68.0373 15.5935 68.3923 15.8154C68.7563 16.0284 69.1602 16.135 69.604 16.135ZM76.9687 20.4756C76.88 20.4756 76.7734 20.4489 76.6492 20.3957C76.2586 20.2182 76.1521 19.9385 76.3296 19.5569L80.3906 10.383C80.5682 10.0102 80.8478 9.90364 81.2295 10.0634C81.6289 10.2321 81.7399 10.5117 81.5623 10.9022L77.488 20.0628C77.3815 20.338 77.2084 20.4756 76.9687 20.4756ZM78.5399 16.9871C78.3712 17.0581 78.2114 17.067 78.0605 17.0137C77.9185 16.9516 77.8031 16.8362 77.7144 16.6675L74.6653 10.8756C74.5765 10.707 74.5632 10.5472 74.6253 10.3963C74.6963 10.2365 74.8162 10.1211 74.9848 10.0501C75.1535 9.97909 75.3133 9.97465 75.4642 10.0368C75.6151 10.09 75.7305 10.201 75.8103 10.3697L78.7263 16.1616C78.815 16.3302 78.8461 16.4945 78.8195 16.6542C78.8017 16.8051 78.7085 16.9161 78.5399 16.9871Z" fill="url(#paint0_linear_8_3396)"/>
<circle cx="12" cy="12" r="12" fill="url(#paint1_linear_8_3396)"/>
<path d="M8.4492 9.13481C7.73787 9.84424 4.62815 14.2796 7.315 16.9658C10.0006 19.6527 14.4347 16.5423 15.1473 15.8316C15.858 15.1222 14.9349 13.0453 13.0856 11.1959C11.235 9.34529 9.16054 8.42157 8.4492 9.13481ZM14.3225 15.2148C14.112 15.4227 12.4871 14.925 10.9218 13.3584C9.35771 11.7931 8.85749 10.1676 9.06798 9.95836C9.27593 9.74788 10.9027 10.2481 12.4662 11.8134C14.0327 13.3775 14.5317 15.0043 14.3225 15.2148ZM14.8664 10.0325L16.0736 8.82416C16.1924 8.70528 16.2592 8.54404 16.2592 8.37592C16.2592 8.20781 16.1924 8.04657 16.0736 7.92769C15.9547 7.80882 15.7934 7.74203 15.6253 7.74203C15.4572 7.74203 15.296 7.80882 15.1771 7.92769L13.97 9.13608C13.8511 9.25496 13.7843 9.41619 13.7843 9.58431C13.7843 9.66755 13.8007 9.74998 13.8326 9.82689C13.8644 9.9038 13.9111 9.97368 13.97 10.0325C14.0288 10.0914 14.0987 10.1381 14.1756 10.17C14.2525 10.2018 14.335 10.2182 14.4182 10.2182C14.5863 10.2182 14.7476 10.1514 14.8664 10.0325ZM12.1339 8.64917C12.2067 8.68964 12.2867 8.71538 12.3695 8.72491C12.4522 8.73445 12.5359 8.7276 12.616 8.70476C12.6961 8.68192 12.7709 8.64353 12.8361 8.59179C12.9013 8.54004 12.9557 8.47595 12.9962 8.40319L13.6853 7.18212C13.767 7.03516 13.787 6.86176 13.7409 6.70006C13.6948 6.53837 13.5863 6.40162 13.4393 6.3199C13.2924 6.23818 13.119 6.21819 12.9573 6.26432C12.7956 6.31045 12.6588 6.41893 12.5771 6.56588L11.888 7.78695C11.8475 7.85971 11.8218 7.93974 11.8122 8.02245C11.8027 8.10516 11.8095 8.18894 11.8324 8.26901C11.8552 8.34908 11.8936 8.42386 11.9454 8.48909C11.9971 8.55432 12.0612 8.60871 12.1339 8.64917ZM17.6801 10.5613C17.6397 10.4885 17.5853 10.4243 17.5201 10.3725C17.4549 10.3207 17.3801 10.2823 17.3 10.2595C17.2199 10.2366 17.1361 10.2298 17.0534 10.2394C16.9706 10.2489 16.8906 10.2747 16.8179 10.3153L15.5879 10.988C15.5152 11.0284 15.4511 11.0828 15.3993 11.1481C15.3476 11.2133 15.3092 11.2881 15.2864 11.3681C15.2635 11.4482 15.2567 11.532 15.2662 11.6147C15.2757 11.6974 15.3015 11.7774 15.3419 11.8502C15.3824 11.923 15.4368 11.987 15.502 12.0388C15.5673 12.0905 15.642 12.1289 15.7221 12.1518C15.8022 12.1746 15.8859 12.1814 15.9687 12.1719C16.0514 12.1624 16.1314 12.1366 16.2042 12.0962L17.4341 11.4235C17.5069 11.3831 17.571 11.3287 17.6227 11.2634C17.6744 11.1982 17.7128 11.1234 17.7357 11.0433C17.7585 10.9633 17.7654 10.8795 17.7558 10.7968C17.7463 10.7141 17.7206 10.6341 17.6801 10.5613Z" fill="white"/>
<defs>
<linearGradient id="paint0_linear_8_3396" x1="28.8" y1="19.2" x2="35.3506" y2="-7.00232" gradientUnits="userSpaceOnUse">
<stop stop-color="#181F92"/>
<stop offset="1" stop-color="#337BE8"/>
</linearGradient>
<linearGradient id="paint1_linear_8_3396" x1="1.3411e-07" y1="24" x2="24" y2="1.3411e-07" gradientUnits="userSpaceOnUse">
<stop stop-color="#181F92"/>
<stop offset="1" stop-color="#337BE8"/>
</linearGradient>
</defs>
</svg>
