<svg width="50" height="50" viewBox="0 0 50 50" fill="none" xmlns="http://www.w3.org/2000/svg">
<circle cx="25" cy="25" r="25" fill="url(#paint0_linear_97_2273)"/>
<path d="M17.6025 19.0309C16.1206 20.5089 9.64197 29.7493 15.2396 35.3455C20.8345 40.9431 30.0723 34.4632 31.5569 32.9826C33.0375 31.5046 31.1144 27.1776 27.2616 23.3248C23.4061 19.4694 19.0845 17.545 17.6025 19.0309ZM29.8385 31.6975C29.4 32.1307 26.0147 31.0938 22.7537 27.8301C19.4952 24.569 18.4531 21.1825 18.8916 20.7466C19.3248 20.3081 22.714 21.3502 25.9712 24.6113C29.2349 27.8697 30.2744 31.2589 29.8385 31.6975ZM30.9718 20.9011L33.4866 18.3837C33.7342 18.136 33.8734 17.8001 33.8734 17.4499C33.8734 17.0996 33.7342 16.7637 33.4866 16.516C33.2389 16.2684 32.903 16.1293 32.5528 16.1293C32.2025 16.1293 31.8666 16.2684 31.619 16.516L29.1041 19.0335C28.8565 19.2812 28.7173 19.6171 28.7173 19.9673C28.7173 20.1408 28.7515 20.3125 28.8179 20.4727C28.8842 20.6329 28.9815 20.7785 29.1041 20.9011C29.2268 21.0238 29.3723 21.121 29.5326 21.1874C29.6928 21.2538 29.8645 21.2879 30.0379 21.2879C30.3882 21.2879 30.7241 21.1488 30.9718 20.9011ZM25.2791 18.0191C25.4307 18.1034 25.5974 18.1571 25.7697 18.1769C25.942 18.1968 26.1165 18.1825 26.2834 18.1349C26.4502 18.0874 26.606 18.0074 26.7418 17.8996C26.8777 17.7918 26.9911 17.6583 27.0754 17.5067L28.5111 14.9628C28.6813 14.6566 28.723 14.2954 28.6269 13.9585C28.5308 13.6216 28.3048 13.3367 27.9986 13.1665C27.6924 12.9962 27.3312 12.9546 26.9943 13.0507C26.6574 13.1468 26.3725 13.3728 26.2023 13.6789L24.7666 16.2228C24.6823 16.3744 24.6287 16.5411 24.6088 16.7135C24.5889 16.8858 24.6032 17.0603 24.6508 17.2271C24.6984 17.3939 24.7783 17.5497 24.8861 17.6856C24.9939 17.8215 25.1275 17.9348 25.2791 18.0191ZM36.8335 22.0027C36.7493 21.851 36.6361 21.7173 36.5002 21.6094C36.3643 21.5015 36.2085 21.4215 36.0417 21.3739C35.8748 21.3263 35.7002 21.3121 35.5278 21.332C35.3555 21.352 35.1888 21.4057 35.0372 21.4902L32.4748 22.8916C32.3232 22.9759 32.1897 23.0892 32.0819 23.2251C31.9741 23.361 31.8942 23.5168 31.8466 23.6836C31.799 23.8504 31.7847 24.025 31.8046 24.1973C31.8245 24.3696 31.8781 24.5363 31.9624 24.6879C32.0467 24.8395 32.16 24.973 32.2959 25.0808C32.4318 25.1886 32.5876 25.2686 32.7544 25.3162C32.9212 25.3638 33.0957 25.378 33.268 25.3582C33.4404 25.3383 33.6071 25.2847 33.7587 25.2004L36.321 23.799C36.4726 23.7147 36.6062 23.6014 36.714 23.4655C36.8218 23.3296 36.9017 23.1738 36.9493 23.007C36.9969 22.8402 37.0112 22.6656 36.9913 22.4933C36.9714 22.321 36.9178 22.1543 36.8335 22.0027Z" fill="white"/>
<defs>
<linearGradient id="paint0_linear_97_2273" x1="2.79397e-07" y1="50" x2="50" y2="2.79397e-07" gradientUnits="userSpaceOnUse">
<stop stop-color="#181F92"/>
<stop offset="1" stop-color="#337BE8"/>
</linearGradient>
</defs>
</svg>
